<svg id="Capa_1" enable-background="new 0 0 512 512" height="512" viewBox="0 0 512 512" width="512" xmlns="http://www.w3.org/2000/svg"><path d="m436 189.786-90 90v42.428l90-90z"/><path d="m346 364.639v77.361h90v-167.36z"/><path d="m436 147.36v-77.36h-90v167.36z"/><path d="m496 0h-225v512h225c8.284 0 15-6.716 15-15v-482c0-8.284-6.716-15-15-15zm-30 457c0 8.284-6.716 15-15 15h-120c-8.284 0-15-6.716-15-15v-402c0-8.284 6.716-15 15-15h120c8.284 0 15 6.716 15 15z"/><path d="m166 189.787-90 90v42.426l90-90z"/><path d="m166 147.36v-77.36h-90v167.36z"/><path d="m16 0c-8.284 0-15 6.716-15 15v482c0 8.284 6.716 15 15 15h225v-512zm180 457c0 8.284-6.716 15-15 15h-120c-8.284 0-15-6.716-15-15v-402c0-8.284 6.716-15 15-15h120c8.284 0 15 6.716 15 15z"/><path d="m76 364.639v77.361h90v-167.36z"/></svg>